:FULLY-SPECIFIED
:FORCE-ALL-JOINTS-BE-3DOF
:DEGREES
2141
root -2.36866 15.2668 -0.104309 902.926 6.51287 188.317
lfemur -54.6062 19.0966 -23.4934
ltibia 39.7396 0 0
lfoot 9.82709 19.6952 0
ltoes 6.06643 0 0
rfemur 3.85687 -3.75971 26.9363
rtibia 42.3127 0 0
rfoot -19.3044 6.0215 0
rtoes -30.3744 0 0
lowerback 9.31373 1.04919 0.996011
upperback -2.25603 1.86469 3.73239
thorax -7.60605 1.01285 3.13553
lowerneck -5.96341 -1.26835 -5.83706
upperneck 8.74344 -1.54453 3.37173
head 3.90513 -0.800651 2.01113
lclavicle -3.17398e-14 -5.08261e-14 0
lhumerus 57.3268 -7.4529 99.1206
lradius 15.739 0 0
lwrist -57.7473 0 0
lhand -36.4888 425.19 0
lfingers 7.12502 0 0
lthumb -9.58098 -248.227 0
rclavicle -3.17398e-14 -5.08261e-14 0
rhumerus -56.5813 20.8286 -99.9917
rradius 115.193 0 0
rwrist -93.4285 0 0
rhand -2.97242 -392.058 0
rfingers 7.12502 0 0
rthumb 21.1936 308.904 0
2142
root -2.34657 15.2709 -0.361235 902.551 5.89495 188.12
lfemur -53.7303 18.8089 -23.5077
ltibia 40.1275 0 0
lfoot 8.91292 19.8534 0
ltoes 5.25151 0 0
rfemur 2.66559 -3.78835 26.4793
rtibia 42.5305 0 0
rfoot -18.3156 6.01451 0
rtoes -29.595 0 0
lowerback 9.4595 0.992506 0.703822
upperback -2.19019 1.73539 3.71094
thorax -7.60482 0.957381 3.30421
lowerneck -5.99993 -1.34042 -5.85198
upperneck 9.00687 -1.66391 3.37963
head 3.98983 -0.864963 1.99995
lclavicle -3.1376e-14 -4.95637e-14 0
lhumerus 57.3285 -8.44546 98.6717
lradius 16.5015 0 0
lwrist -56.7663 0 0
lhand -36.4876 426.108 0
lfingers 7.12502 0 0
lthumb -9.57973 -245.826 0
rclavicle -3.1376e-14 -4.95637e-14 0
rhumerus -55.9702 20.5816 -99.5221
rradius 116.138 0 0
rwrist -93.1676 0 0
rhand -0.886626 -391.871 0
rfingers 7.12502 0 0
rthumb 22.9375 310.907 0
2143
root -2.32449 15.2751 -0.618161 902.158 5.23795 187.907
lfemur -52.7765 18.4933 -23.5157
ltibia 40.5726 0 0
lfoot 7.94578 20.0041 0
ltoes 4.35679 0 0
rfemur 1.37592 -3.81048 25.9982
rtibia 42.7777 0 0
rfoot -17.2803 5.99294 0
rtoes -28.7506 0 0
lowerback 9.6133 0.935095 0.396507
upperback -2.11968 1.60214 3.68589
thorax -7.60261 0.900272 3.47849
lowerneck -6.03457 -1.42099 -5.86917
upperneck 9.27647 -1.79585 3.39147
head 4.07652 -0.935735 1.98958
lclavicle -3.09481e-14 -4.82083e-14 0
lhumerus 57.2218 -9.49983 98.2103
lradius 17.3756 0 0
lwrist -55.6603 0 0
lhand -36.4622 426.752 0
lfingers 7.12502 0 0
lthumb -9.55505 -243.833 0
rclavicle -3.09481e-14 -4.82083e-14 0
rhumerus -55.2366 20.3141 -98.9879
rradius 117.061 0 0
rwrist -92.8219 0 0
rhand 1.29802 -391.685 0
rfingers 7.12502 0 0
rthumb 24.7651 312.99 0
2144
root -2.30241 15.2792 -0.875087 901.751 4.54469 187.678
lfemur -51.7498 18.1516 -23.5174
ltibia 41.0706 0 0
lfoot 6.92984 20.1478 0
ltoes 3.3878 0 0
rfemur -0.00531706 -3.82687 25.4949
rtibia 43.0525 0 0
rfoot -16.2027 5.95792 0
rtoes -27.846 0 0
lowerback 9.7744 0.877128 0.0752353
upperback -2.04493 1.46539 3.6574
thorax -7.5995 0.84172 3.65776
lowerneck -6.0672 -1.50962 -5.88861
upperneck 9.55127 -1.9397 3.40715
head 4.16488 -1.01261 1.98007
lclavicle -3.04594e-14 -4.6767e-14 0
lhumerus 57.0106 -10.6105 97.7383
lradius 18.3549 0 0
lwrist -54.4364 0 0
lhand -36.4133 427.137 0
lfingers 7.12502 0 0
lthumb -9.50779 -242.23 0
rclavicle -3.04594e-14 -4.6767e-14 0
rhumerus -54.3871 20.0271 -98.3932
rradius 117.958 0 0
rwrist -92.3943 0 0
rhand 3.57107 -391.5 0
rfingers 7.12502 0 0
rthumb 26.6675 315.143 0
2145
root -2.28032 15.2833 -1.13201 901.331 3.81799 187.436
lfemur -50.6553 17.7857 -23.513
ltibia 41.6172 0 0
lfoot 5.86929 20.2852 0
ltoes 2.35009 0 0
rfemur -1.4713 -3.83827 24.9713
rtibia 43.3534 0 0
rfoot -15.0872 5.91058 0
rtoes -26.8861 0 0
lowerback 9.94211 0.818777 -0.258823
upperback -1.96633 1.3256 3.62561
thorax -7.5956 0.781927 3.84143
lowerneck -6.09771 -1.6059 -5.91031
upperneck 9.83035 -2.09477 3.42656
head 4.25464 -1.09525 1.97144
lclavicle -2.99128e-14 -4.52468e-14 0
lhumerus 56.699 -11.772 97.2574
lradius 19.4329 0 0
lwrist -53.1015 0 0
lhand -36.342 427.281 0
lfingers 7.12502 0 0
lthumb -9.43882 -241 0
rclavicle -2.99128e-14 -4.52468e-14 0
rhumerus -53.4281 19.7218 -97.742
rradius 118.828 0 0
rwrist -91.8875 0 0
rhand 5.92205 -391.315 0
rfingers 7.12502 0 0
rthumb 28.636 317.357 0
2146
root -2.25824 15.2875 -1.38894 900.9 3.06068 187.18
lfemur -49.498 17.3975 -23.5026
ltibia 42.2079 0 0
lfoot 4.76829 20.4168 0
ltoes 1.2492 0 0
rfemur -3.01521 -3.84543 24.4292
rtibia 43.6785 0 0
rfoot -13.9382 5.85206 0
rtoes -25.8757 0 0
lowerback 10.1157 0.760214 -0.604498
upperback -1.8843 1.18323 3.59067
thorax -7.59101 0.721094 4.02888
lowerneck -6.12596 -1.70938 -5.93427
upperneck 10.1127 -2.2604 3.4496
head 4.3455 -1.18328 1.96371
lclavicle -2.93116e-14 -4.36547e-14 0
lhumerus 56.2909 -12.9788 96.7692
lradius 20.6032 0 0
lwrist -51.6626 0 0
lhand -36.249 427.2 0
lfingers 7.12502 0 0
lthumb -9.349 -240.127 0
rclavicle -2.93116e-14 -4.36547e-14 0
rhumerus -52.3659 19.3992 -97.0383
rradius 119.667 0 0
rwrist -91.3043 0 0
rhand 8.34052 -391.132 0
rfingers 7.12502 0 0
rthumb 30.6617 319.624 0
2147
root -2.23616 15.2916 -1.64587 900.46 2.2756 186.911
lfemur -48.283 16.9889 -23.4865
ltibia 42.8386 0 0
lfoot 3.63104 20.5431 0
ltoes 0.0906613 0 0
rfemur -4.63023 -3.84912 23.8707
rtibia 44.0262 0 0
rfoot -12.7599 5.78347 0
rtoes -24.8195 0 0
lowerback 10.2945 0.701612 -0.960619
upperback -1.79925 1.03871 3.55274
thorax -7.58585 0.65942 4.21952
lowerneck -6.15185 -1.81964 -5.96048
upperneck 10.3975 -2.43592 3.47615
head 4.43716 -1.27636 1.9569
lclavicle -2.86588e-14 -4.19979e-14 0
lhumerus 55.7902 -14.2254 96.2754
lradius 21.8593 0 0
lwrist -50.1268 0 0
lhand -36.1353 426.909 0
lfingers 7.12502 0 0
lthumb -9.2392 -239.593 0
rclavicle -2.86588e-14 -4.19979e-14 0
rhumerus -51.2072 19.0602 -96.2864
rradius 120.474 0 0
rwrist -90.6476 0 0
rhand 10.816 -390.951 0
rfingers 7.12502 0 0
rthumb 32.7357 321.933 0
2148
root -2.21408 15.2957 -1.90279 900.011 1.46557 186.631
lfemur -47.0154 16.5618 -23.4646
ltibia 43.5048 0 0
lfoot 2.46172 20.6648 0
ltoes -1.11997 0 0
rfemur -6.30954 -3.85009 23.2976
rtibia 44.3948 0 0
rfoot -11.5566 5.70594 0
rtoes -23.7225 0 0
lowerback 10.4778 0.643144 -1.32602
upperback -1.71159 0.892519 3.51195
thorax -7.58021 0.597106 4.41275
lowerneck -6.17523 -1.93626 -5.98894
upperneck 10.6837 -2.62066 3.5061
head 4.52933 -1.37414 1.95104
lclavicle -2.79574e-14 -4.02835e-14 0
lhumerus 55.201 -15.5063 95.7778
lradius 23.1946 0 0
lwrist -48.501 0 0
lhand -36.0018 426.424 0
lfingers 7.12502 0 0
lthumb -9.11027 -239.381 0
rclavicle -2.79574e-14 -4.02835e-14 0
rhumerus -49.9584 18.706 -95.4903
rradius 121.245 0 0
rwrist -89.9202 0 0
rhand 13.338 -390.773 0
rfingers 7.12502 0 0
rthumb 34.8494 324.276 0
2149
root -2.19199 15.2999 -2.15972 899.558 0.633411 186.341
lfemur -45.7002 16.1181 -23.4372
ltibia 44.2022 0 0
lfoot 1.2645 20.7824 0
ltoes -2.37717 0 0
rfemur -8.04632 -3.84911 22.7117
rtibia 44.7825 0 0
rfoot -10.3327 5.62061 0
rtoes -22.5892 0 0
lowerback 10.6649 0.584981 -1.69952
upperback -1.62172 0.745099 3.46846
thorax -7.57419 0.534353 4.60795
lowerneck -6.19599 -2.0588 -6.01966
upperneck 10.9704 -2.81395 3.53936
head 4.62172 -1.47626 1.94616
lclavicle -2.72107e-14 -3.85184e-14 0
lhumerus 54.5272 -16.816 95.278
lradius 24.6027 0 0
lwrist -46.7924 0 0
lhand -35.8494 425.762 0
lfingers 7.12502 0 0
lthumb -8.96308 -239.475 0
rclavicle -2.72107e-14 -3.85184e-14 0
rhumerus -48.6258 18.3375 -94.6541
rradius 121.979 0 0
rwrist -89.1248 0 0
rhand 15.8962 -390.599 0
rfingers 7.12502 0 0
rthumb 36.9938 326.644 0
2150
root -2.16991 15.304 -2.41664 899.1 -0.218043 186.041
lfemur -44.3426 15.6596 -23.4045
ltibia 44.9266 0 0
lfoot 0.0435655 20.8965 0
ltoes -3.67538 0 0
rfemur -9.83376 -3.84693 22.1151
rtibia 45.1878 0 0
rfoot -9.0926 5.5286 0
rtoes -21.4247 0 0
lowerback 10.855 0.527296 -2.07997
upperback -1.53007 0.596906 3.42242
thorax -7.56791 0.471362 4.80452
lowerneck -6.21401 -2.18684 -6.05262
upperneck 11.2566 -3.01512 3.5758
head 4.71403 -1.58236 1.94227
lclavicle -2.64217e-14 -3.67097e-14 0
lhumerus 53.7727 -18.149 94.7778
lradius 26.0771 0 0
lwrist -45.0078 0 0
lhand -35.679 424.94 0
lfingers 7.12502 0 0
lthumb -8.79848 -239.856 0
rclavicle -2.64217e-14 -3.67097e-14 0
rhumerus -47.2161 17.9558 -93.7818
rradius 122.671 0 0
rwrist -88.2644 0 0
rhand 18.48 -390.429 0
rfingers 7.12502 0 0
rthumb 39.1601 329.027 0
2151
root -2.14783 15.3082 -2.67357 898.64 -1.08597 185.733
lfemur -42.9475 15.1884 -23.3665
ltibia 45.6735 0 0
lfoot -1.1969 21.0077 0
ltoes -5.00907 0 0
rfemur -11.665 -3.84431 21.5096
rtibia 45.6088 0 0
rfoot -7.84048 5.43104 0
rtoes -20.2337 0 0
lowerback 11.0475 0.470262 -2.46618
upperback -1.43702 0.448396 3.37398
thorax -7.56146 0.408334 5.00187
lowerneck -6.22917 -2.31995 -6.08783
upperneck 11.5414 -3.2235 3.61533
head 4.80596 -1.6921 1.93942
lclavicle -2.55935e-14 -3.48645e-14 0
lhumerus 52.9415 -19.4998 94.2789
lradius 27.6114 0 0
lwrist -43.1543 0 0
lhand -35.4914 423.972 0
lfingers 7.12502 0 0
lthumb -8.61735 -240.509 0
rclavicle -2.55935e-14 -3.48645e-14 0
rhumerus -45.7356 17.5619 -92.8776
rradius 123.321 0 0
rwrist -87.3416 0 0
rhand 21.079 -390.263 0
rfingers 7.12502 0 0
rthumb 41.3395 331.416 0
2152
root -2.12574 15.3123 -2.9305 898.18 -1.96753 185.417
lfemur -41.5201 14.7061 -23.3234
ltibia 46.4386 0 0
lfoot -2.45272 21.1166 0
ltoes -6.3727 0 0
rfemur -13.5333 -3.84201 20.8971
rtibia 46.0438 0 0
rfoot -6.58072 5.32906 0
rtoes -19.021 0 0
lowerback 11.2416 0.414051 -2.85698
upperback -1.34301 0.300023 3.32328
thorax -7.55494 0.345468 5.19938
lowerneck -6.24133 -2.4577 -6.12528
upperneck 11.8239 -3.43842 3.65783
head 4.89723 -1.80513 1.93761
lclavicle -2.47292e-14 -3.299e-14 0
lhumerus 52.0377 -20.8629 93.783
lradius 29.199 0 0
lwrist -41.2389 0 0
lhand -35.2876 422.876 0
lfingers 7.12502 0 0
lthumb -8.42055 -241.416 0
rclavicle -2.47292e-14 -3.299e-14 0
rhumerus -44.1908 17.1568 -91.9455
rradius 123.925 0 0
rwrist -86.3594 0 0
rhand 23.6827 -390.102 0
rfingers 7.12502 0 0
rthumb 43.5232 333.802 0
2153
root -2.10366 15.3164 -3.18742 897.721 -2.85991 185.095
lfemur -40.0655 14.2148 -23.2754
ltibia 47.2177 0 0
lfoot -3.7197 21.2237 0
ltoes -7.76073 0 0
rfemur -15.4318 -3.84079 20.2796
rtibia 46.4912 0 0
rfoot -5.31763 5.22378 0
rtoes -17.7914 0 0
lowerback 11.4367 0.358835 -3.25122
upperback -1.24843 0.15224 3.27047
thorax -7.54847 0.282965 5.39646
lowerneck -6.25037 -2.59966 -6.16498
upperneck 12.1031 -3.65921 3.7032
head 4.98754 -1.92108 1.93687
lclavicle -2.38319e-14 -3.10931e-14 0
lhumerus 51.065 -22.2328 93.2918
lradius 30.8335 0 0
lwrist -39.2687 0 0
lhand -35.0684 421.667 0
lfingers 7.12502 0 0
lthumb -8.20892 -242.56 0
rclavicle -2.38319e-14 -3.10931e-14 0
rhumerus -42.5881 16.7417 -90.9897
rradius 124.481 0 0
rwrist -85.3204 0 0
rhand 26.2807 -389.948 0
rfingers 7.12502 0 0
rthumb 45.7024 336.175 0
